<svg xmlns="http://www.w3.org/2000/svg" xmlns:xlink="http://www.w3.org/1999/xlink" viewBox="0 0 32 32"><defs><path id="a" d="M0 0h32v24.229H0z"/></defs><g fill="none" fill-rule="evenodd" transform="translate(0 4)"><mask id="b" fill="#fff"><use xlink:href="#a"/></mask><path fill="#E00" d="M6.31 17.71l-1.76.6-1.35.5c-.43.18-1.18.49-1.36.55-.28.1-.4.04-.48-.13-.08-.16-.26-.51-.36-.92-.1-.4-.14-.75-.15-.87 0-.13.1-.35.26-.44l.81-.48c.56-.32 2.5-1.35 3.65-1.95 1.22-.63 3.14-1.56 4.18-2.07a94.56 94.56 0 0 1 2.94-1.4c.2-.1.42-.2.52-.2.1 0 .06.05.06.1 0 .03-.03.05-.04.12-.02.08 0 .16-.03.24-.03.08-.1.15-.1.2-.02.05-.03.24-.08.3s-.23.42-.27.58a2.9 2.9 0 0 1-.16.5c-.04.07-.16.3-.18.39-.01.07-.1.25-.12.33-.02.08-.18.36-.2.41-.03.05-.13.4-.16.45l-.12.2-.06.22s-.14.2-.14.24c0 .04-.1.38-.15.46a5.72 5.72 0 0 0-.51 1.35c-.03.07-.17.3-.2.38a6.46 6.46 0 0 1-.31.9c0 .08-.08.24-.14.38-.07.15-.14.39-.18.48-.04.09-.09.15-.1.2-.02.05-.03.2-.04.23a1.9 1.9 0 0 1-.04.1c-.06.04-3.5 1.51-3.98 1.74l-4.2 1.99c-.21.1-.5.32-.7.18a2.63 2.63 0 0 1-.72-.93A3.48 3.48 0 0 1 0 21.52c-.03-.44.16-.52.8-.9l3.63-1.92 1.88-.99zm8.6-12.62c-.12 0-.23 0-.26-.03-.01-.02 0-.05-.02-.08-.04-.03-.1-.02-.11 0l-.06.02c-.05.02-.2-.04-.27-.02a.41.41 0 0 1-.22 0c-.04-.02-.04-.13-.12-.16a.5.5 0 0 1-.2-.15c-.03-.06-.13-.16-.15-.21a4.45 4.45 0 0 1-.15-.31l-.08-.09c-.03-.02-.05-.11-.07-.15l-.06-.1-.03-.1-.07-.11c0-.04-.02-.26-.01-.44l.01-.4c.02-.06.06-.13.07-.2l.13-.42a3.49 3.49 0 0 1 .26-.71l.23-.35.39-.38.52-.38c.05-.02.12-.02.12-.02l.06-.07.07-.06c.03-.02.11-.02.11-.02s.1-.08.2-.06c.04.01.07-.06.1-.07.04-.01.18-.03.2-.01.02.02.05.04.12.06h.17c.04.01.09.06.11.07.03.01.38.33.43.41.02.03.02.08.03.1.01.03.07.06.1.15.01.07.08.1.1.2 0 .06.1.1.14.23l.03.17c.01.02.04.02.05.07l.02.16c0 .05.1.25.08.37 0 .11-.03.23-.06.34-.03.09-.01.26-.03.33l-.08.3-.18.45-.15.25c-.04.05-.33.46-.39.52-.05.05-.18.15-.2.19l-.1.17c-.06.1-.14.03-.18.1-.06.08-.16.1-.18.16a.44.44 0 0 1-.12.18.61.61 0 0 1-.3.1zm5.21 8.3c-.1-.1.03-.1.14-.15a82.56 82.56 0 0 1 10.87-2.83c.2-.04.27-.01.37.15.12.18.36.8.45 1.3.12.63 0 1.28-.05 1.43-.05.13-.23.14-.65.25-.25.07-1.34.35-1.78.48-.5.15-1.86.54-2.36.7l-1.43.49-4.3.07s-.07-.29-.1-.32c-.05-.02-.11-.16-.15-.2a.76.76 0 0 1-.09-.18s-.04-.15-.08-.18c-.03-.02-.13-.24-.17-.27a1.14 1.14 0 0 1-.16-.19c-.04-.05-.06-.11-.12-.16-.07-.06-.15-.16-.2-.18-.05-.03-.1-.1-.19-.2zm-3.66-3.5c-.13-.07-.08-.15.07-.21.95-.41 3.35-1.27 4.73-1.7 1.17-.38 4.42-1.43 5.32-1.7.22-.05.3-.05.4.05.25.26.49.61.71 1.05.2.4.39.98.46 1.34.05.27-.07.32-.22.38-1 .45-3.48 1.54-4.51 2.02-1 .48-2.85 1.36-3.47 1.68-.27.13-.22.18-.4-.02-.06-.06-.14-.2-.17-.24l-.4-.39c-.05-.03-.24-.26-.29-.3-.05-.04-.22-.27-.27-.3a.48.48 0 0 1-.17-.1c-.04-.04-.1-.12-.15-.15a1.37 1.37 0 0 1-.12-.11l-.12-.1-.1-.12s-.1-.12-.16-.14a.56.56 0 0 1-.17-.17 2.1 2.1 0 0 0-.34-.36l-.4-.26a1.2 1.2 0 0 0-.23-.14zm-12.4 1.79c-.01-.03-.03-.08 0-.12l.14-.1c.04 0 .02-.07.14-.09.1 0 .16-.13.2-.2.03-.06.22-.18.39-.29a82.35 82.35 0 0 1 10.6-4.98c2.94-1.1 6.93-2.26 7.8-2.48l.25-.1c.08 0 .16.03.33 0 .18-.04.2-.1.27-.1.07-.02.16 0 .2.02.03.01.15.01.19.04.03.02.05.06.05.11s.07.1.07.1.07.04.08.08c.01.04-.01.17-.01.17s.06 0 .07.05c.02.05 0 .09 0 .09s.08.05.1.11c.03.07 0 .26.03.32s.17.14.2.22c.02.08 0 .19 0 .19s.1.01.08.1c-.01.1-.12.3-.12.35 0 .05.07.19.05.29-.03.1-.08.12-.11.13-.03.02-.28.06-.4.09-1.06.26-6.67 1.7-9.92 2.96-2.08.8-4.35 1.57-7.23 2.95l-.26.14-.33.16-.3.17s-.17.1-.2 0c0-.08-.08-.05-.15-.08a.21.21 0 0 1-.11-.09c-.04-.03-.16.03-.22.06-.07.02-.03.1-.12.1-.1.01-.14.16-.23.18-.1.02-.29.12-.39.17-.05.02-.15.13-.21.19-.07.06-.26.12-.33.1-.06-.03 0-.38-.07-.51-.03-.05 0-.1-.01-.15-.02-.04-.07-.03-.1-.04-.04-.01-.06-.08-.08-.12-.03-.04-.02-.08-.06-.11h-.08c-.03 0-.07-.04-.1-.05-.03-.01-.09 0-.1-.03zM8.8 21.1c.23-.14.77-.42.83-.46.1-.06.17-.06.17-.02.01.12.01.37.17.43.04.01.16-.04.18-.01l.07.1c.02.02.1 0 .11.02.05.04 0 .09.03.12.04.04.11-.03.15-.02.07.01.09.09.07.14-.02.08.04.14.17.03.07-.06.08-.03.14-.06.03-.01.1-.01.12.01a.3.3 0 0 0 .1.09c.06.02.12 0 .15.01.06.02.06.1.1.1.05.01.1-.07.12-.05.08.08-.07.2.04.24.05.01.07-.03.12-.04.04 0 .07-.06.1-.06.05 0 .07.05.12.02l.11-.06c.05-.03.11-.01.14-.04.04-.03.01-.12.12-.1.12.03-.02.13.04.18.04.03.13 0 .16-.01.06-.02.12-.1.14-.15.03-.07.12-.28.16-.34.04-.05.14-.28.19-.35.05-.08.25-.4.27-.46.02-.05.1-.12.11-.16.02-.03.06-.16.12-.26.05-.1.19-.31.2-.35l.16-.36c.04-.08.17-.26.2-.34l.12-.26.1-.16.08-.16c.04-.1.18-.3.21-.37l.15-.22.08-.19.07-.14s.05-.16.08-.2l.14-.22c.02-.06.1-.31.14-.39.03-.07.22-.4.24-.47l.23-.48c.02-.07.02-.16.05-.21a3.17 3.17 0 0 0 .27-.57c.02-.05.04-.13.09-.13.05 0 .09.05.12.1.04.05.11.04.16.09.04.04.19.2.2.23 0 .02.09.03.1.06.02.02.04.09.06.1.03.01.16.1.18.14.03.04.06.11.1.14.02.03.17.11.19.15l.25.34.07.15c.02.04.1.08.1.11 0 .04.01.15.03.18.02.03.11.07.12.1.02.04.05.16.07.18.02.02.06.04.07.07.02.02.03.16.05.19l.1.18.1.16.03.2c.01.05.07.14.07.17l.02.1.06.12s.05.12.05.17l.02.12c0 .04.06.12.06.14 0 .03.07.18.07.18v.16c.01.03.07.12.07.15l-.02.12.03.05s-.02.07 0 .1c0 .02-.02.08 0 .1.02.01.07.15.07.15a216.04 216.04 0 0 0-9.27 4.5c-.37.21-.6.33-.68.29-.2-.1-.53-.4-.76-1.02-.19-.53-.2-.97-.17-1.19 0-.17 0-.3.25-.44l.8-.46z" mask="url(#b)"/></g></svg>